<?xml version="1.0" encoding="UTF-8"?>
<svg xmlns="http://www.w3.org/2000/svg" xmlns:xlink="http://www.w3.org/1999/xlink" xmlns:svgjs="http://svgjs.com/svgjs" version="1.1" width="512" height="512" x="0" y="0" viewBox="0 0 152 152" style="enable-background:new 0 0 512 512" xml:space="preserve" class="">
  <g>
    <g xmlns="http://www.w3.org/2000/svg" id="Icon">
      <path d="m11 47.9v42.6c0 12.1 9.8 21.9 21.9 21.9h63.6c4.5 0 8.2-3.7 8.2-8.2v-42.7c0-12.1-9.8-21.9-21.9-21.9h-63.6c-4.5 0-8.2 3.6-8.2 8z" fill="#fffff3" data-original="#000000" class=""/>
      <path d="m112 95.3 17.6 15.4c2.8 2.5 7.2 2.2 9.7-.6 1.1-1.3 1.7-2.9 1.7-4.5v-59.2c0-3.8-3.1-6.8-6.8-6.9-1.7 0-3.3.6-4.5 1.7l-17.7 15.5c-1.5 1.3-2.3 3.2-2.3 5.2v28.3c0 1.9.9 3.8 2.3 5.1z" fill="#fffff3" data-original="#000000" class=""/>
    </g>
  </g>
</svg>
